<svg width="17" height="19" viewBox="0 0 17 19" fill="none" xmlns="http://www.w3.org/2000/svg">
<path d="M15.5604 0C15.7962 0 16.0224 0.0936796 16.1891 0.26043C16.3559 0.427181 16.4496 0.653344 16.4496 0.889165V5.33499C16.4496 5.57081 16.3559 5.79698 16.1891 5.96373C16.0224 6.13048 15.7962 6.22416 15.5604 6.22416H11.1146V17.7833C11.1146 18.0191 11.0209 18.2453 10.8541 18.412C10.6874 18.5788 10.4612 18.6725 10.2254 18.6725H6.66874C6.43292 18.6725 6.20676 18.5788 6.04 18.412C5.87325 18.2453 5.77957 18.0191 5.77957 17.7833V6.22416H0.889165C0.653344 6.22416 0.427181 6.13048 0.26043 5.96373C0.0936796 5.79698 0 5.57081 0 5.33499V3.217C8.81595e-05 3.05192 0.0461327 2.89012 0.132977 2.74972C0.219821 2.60933 0.344035 2.49588 0.491708 2.42209L5.33499 0H15.5604ZM11.1146 1.77833H5.75468L1.77833 3.7665V4.44583H7.5579V16.8941H9.33623V4.44583H11.1146V1.77833ZM14.6712 1.77833H12.8929V4.44583H14.6712V1.77833Z" fill="#005FB0"/>
</svg>
